<?xml version="1.0" encoding="UTF-8" standalone="no"?>
<!-- Created with Inkscape (http://www.inkscape.org/) -->

<svg
   xmlns:osb="http://www.openswatchbook.org/uri/2009/osb"
   xmlns:dc="http://purl.org/dc/elements/1.1/"
   xmlns:cc="http://creativecommons.org/ns#"
   xmlns:rdf="http://www.w3.org/1999/02/22-rdf-syntax-ns#"
   xmlns:svg="http://www.w3.org/2000/svg"
   xmlns="http://www.w3.org/2000/svg"
   xmlns:sodipodi="http://sodipodi.sourceforge.net/DTD/sodipodi-0.dtd"
   xmlns:inkscape="http://www.inkscape.org/namespaces/inkscape"
   width="742"
   height="742"
   viewBox="0 0 741.99995 741.99995"
   id="svg2"
   version="1.1"
   inkscape:version="0.91 r13725"
   sodipodi:docname="vk.svg">
  <defs
     id="defs4">
    <linearGradient
       id="linearGradient4150"
       osb:paint="solid">
      <stop
         style="stop-color:#000000;stop-opacity:1;"
         offset="0"
         id="stop4152" />
    </linearGradient>
  </defs>
  <sodipodi:namedview
     id="base"
     pagecolor="#ffffff"
     bordercolor="#666666"
     borderopacity="1.0"
     inkscape:pageopacity="0.0"
     inkscape:pageshadow="2"
     inkscape:zoom="0.35"
     inkscape:cx="-102.21919"
     inkscape:cy="520"
     inkscape:document-units="px"
     inkscape:current-layer="layer1"
     showgrid="false"
     inkscape:window-width="1366"
     inkscape:window-height="746"
     inkscape:window-x="-8"
     inkscape:window-y="-8"
     inkscape:window-maximized="1"
     units="px" />
  <metadata
     id="metadata7">
    <rdf:RDF>
      <cc:Work
         rdf:about="">
        <dc:format>image/svg+xml</dc:format>
        <dc:type
           rdf:resource="http://purl.org/dc/dcmitype/StillImage" />
        <dc:title></dc:title>
      </cc:Work>
    </rdf:RDF>
  </metadata>
  <g
     inkscape:label="Layer 1"
     inkscape:groupmode="layer"
     id="layer1"
     transform="translate(0,-310.36224)">
    <g
       id="g3340"
       transform="matrix(0.14452944,0,0,-0.14453061,2.862021,1052.9084)"
       style="fill:#000000;stroke:none">
      <path
         id="path3342"
         d="M 840,5105 C 406,5029 75,4690 11,4253 -4,4153 -4,967 11,867 77,421 421,77 867,11 967,-4 4153,-4 4253,11 c 446,66 790,410 856,856 15,100 15,3286 0,3386 -66,446 -410,790 -856,856 -114,17 -3315,13 -3413,-4 z M 2586,3520 c 160,-12 211,-31 244,-90 l 25,-45 -3,-356 c -4,-336 -3,-359 16,-400 44,-101 85,-101 182,-1 110,112 262,358 360,584 73,166 89,194 114,206 37,17 704,19 738,2 55,-26 54,-98 -1,-209 -64,-129 -140,-240 -359,-530 -138,-182 -178,-254 -168,-304 9,-44 59,-104 213,-251 203,-195 327,-351 353,-444 14,-54 -7,-94 -66,-123 -48,-24 -53,-24 -354,-24 l -305,0 -67,32 c -69,32 -135,93 -318,289 -96,104 -139,134 -191,134 -76,0 -130,-101 -145,-267 -8,-89 -24,-128 -56,-139 -43,-13 -420,-6 -504,10 -165,31 -343,110 -479,212 -275,205 -596,670 -906,1309 -110,228 -116,247 -95,281 25,38 74,44 351,44 251,0 263,-1 305,-22 34,-17 51,-35 67,-68 12,-25 58,-119 102,-210 43,-91 115,-222 159,-291 142,-227 215,-304 284,-297 28,3 36,10 55,48 35,69 43,136 43,340 0,320 -29,394 -167,432 -54,15 -56,36 -6,77 50,42 112,60 230,70 140,12 211,12 349,1 z"
         inkscape:connector-curvature="0"
         style="fill:#ffffff;fill-opacity:1" />
    </g>
  </g>
</svg>
